<?xml version="1.0" standalone="no"?>
<!DOCTYPE svg PUBLIC "-//W3C//DTD SVG 20010904//EN"
 "http://www.w3.org/TR/2001/REC-SVG-20010904/DTD/svg10.dtd">
<svg version="1.0" xmlns="http://www.w3.org/2000/svg"
 width="304.000000pt" height="304.000000pt" viewBox="0 0 304.000000 304.000000"
 preserveAspectRatio="xMidYMid meet">
<metadata>
Created by potrace 1.11, written by Peter Selinger 2001-2013
</metadata>
<g transform="translate(0.000000,304.000000) scale(0.100000,-0.100000)"
fill="#000000" stroke="none">
<path d="M1005 2750 c-49 -11 -126 -31 -170 -46 -346 -116 -645 -412 -765
-756 -95 -275 -95 -580 -1 -852 99 -286 316 -536 592 -685 295 -159 682 -186
1013 -72 344 119 637 412 756 753 39 114 70 270 70 356 l0 69 78 21 c215 60
378 218 441 430 29 96 29 258 0 354 -80 270 -319 448 -600 448 -104 0 -181
-16 -274 -58 -57 -25 -155 -95 -183 -131 -11 -13 -15 -14 -35 -2 -127 80 -274
138 -435 171 -134 27 -357 27 -487 0z"/>
</g>
</svg>
