<svg width="642" height="372" viewBox="0 0 642 372" fill="none" xmlns="http://www.w3.org/2000/svg">
<g filter="url(#filter0_d)">
<path d="M0 21.2903C0 21.2903 83.5436 -26.6129 129.067 21.2903C174.591 69.1935 249.63 21.2903 306.66 56.5968C363.69 91.9032 390.704 167.484 406.212 190.194C421.72 212.903 431.726 204.387 483.753 204.742C535.78 205.097 535.78 220.838 535.78 239.935C535.78 259.032 535.78 264 569.798 289.613C603.815 315.226 609.819 305.645 629.329 328.29C648.839 350.935 629.329 374 629.329 374H0V21.2903Z" fill="url(#paint0_linear)"/>
</g>
<defs>
<filter id="filter0_d" x="-4" y="0" width="646" height="382" filterUnits="userSpaceOnUse" color-interpolation-filters="sRGB">
<feFlood flood-opacity="0" result="BackgroundImageFix"/>
<feColorMatrix in="SourceAlpha" type="matrix" values="0 0 0 0 0 0 0 0 0 0 0 0 0 0 0 0 0 0 127 0"/>
<feOffset dy="4"/>
<feGaussianBlur stdDeviation="2"/>
<feColorMatrix type="matrix" values="0 0 0 0 0 0 0 0 0 0 0 0 0 0 0 0 0 0 0.25 0"/>
<feBlend mode="normal" in2="BackgroundImageFix" result="effect1_dropShadow"/>
<feBlend mode="normal" in="SourceGraphic" in2="effect1_dropShadow" result="shape"/>
</filter>
<linearGradient id="paint0_linear" x1="319" y1="0" x2="319" y2="374" gradientUnits="userSpaceOnUse">
<stop stop-color="#79B9A2"/>
<stop offset="1" stop-color="#5D917E"/>
</linearGradient>
</defs>
</svg>
