<?xml version="1.0" encoding="UTF-8" standalone="no"?>
<!DOCTYPE svg PUBLIC "-//W3C//DTD SVG 1.1//EN" "http://www.w3.org/Graphics/SVG/1.1/DTD/svg11.dtd">
<svg width="100%" height="100%" viewBox="0 0 38 38" version="1.1" xmlns="http://www.w3.org/2000/svg" xmlns:xlink="http://www.w3.org/1999/xlink" xml:space="preserve" xmlns:serif="http://www.serif.com/" style="fill-rule:evenodd;clip-rule:evenodd;stroke-linejoin:round;stroke-miterlimit:1.41421;">
    <g transform="matrix(1,0,0,1,-1729.69,-158.465)">
        <g transform="matrix(1,0,0,1,1037.34,0)">
            <g transform="matrix(0.231706,0,0,0.231706,648.498,36.6248)">
                <path d="M336.603,658.013C344.962,658.013 351.748,664.799 351.748,673.158C351.748,681.517 344.962,688.303 336.603,688.303L204.429,688.303C196.07,688.303 189.284,681.517 189.284,673.158C189.284,664.799 196.07,658.013 204.429,658.013L336.603,658.013ZM336.603,591.926C344.962,591.926 351.748,598.712 351.748,607.071C351.748,615.43 344.962,622.216 336.603,622.216L204.429,622.216C196.07,622.216 189.284,615.43 189.284,607.071C189.284,598.712 196.07,591.926 204.429,591.926L336.603,591.926ZM336.603,525.839C344.962,525.839 351.748,532.625 351.748,540.984C351.748,549.343 344.962,556.129 336.603,556.129L204.429,556.129C196.07,556.129 189.284,549.343 189.284,540.984C189.284,532.625 196.07,525.839 204.429,525.839L336.603,525.839Z" style="fill:rgb(97,110,125);"/>
            </g>
        </g>
    </g>
</svg>
