<svg width="408" height="366" viewBox="0 0 408 366" fill="none" xmlns="http://www.w3.org/2000/svg">
<g clip-path="url(#clip0)" filter="url(#filter0_d)">
<path d="M402.444 97.1369L401.713 95.9965L376.803 69.1986C375.332 66.9296 376.298 63.6105 378.986 62.7741C382.765 61.5888 386.357 59.4914 389.444 56.4665C399.829 46.2375 400.292 29.4059 390.376 19.1902C380.925 8.49106 364.633 8.21926 354.262 18.4813C351.197 21.5152 349.007 25.1285 347.7 28.9786C346.764 31.7086 343.514 32.5569 341.39 30.9415L316.567 4.04133L315.491 3.23993C313.926 1.69246 311.419 1.70437 309.795 3.31908L281.004 31.8326C279.219 31.9552 277.46 30.9296 276.912 28.9646C274.466 20.2291 267.428 12.6879 255.494 10.3054C254.271 10.056 252.969 10.0448 251.733 10.2711C227.292 14.7089 220.998 40.9443 234.134 55.1783C236.916 58.1919 240.259 60.325 243.851 61.5769C245.786 62.255 246.647 64.2865 246.299 66.1954L217.344 94.8784C215.662 96.5401 215.577 99.2357 217.134 100.896L243.318 129.084L243.784 129.456L243.941 129.626C246.161 132.029 250.045 130.755 250.857 127.457C253.257 117.933 260.884 109.431 273.615 106.844C275.996 106.665 278.392 106.823 280.723 107.332C286.082 108.843 290.333 111.484 293.502 114.813C296.576 118.236 298.947 122.74 300.159 128.339C300.556 130.755 300.611 133.228 300.328 135.687C297.24 148.704 288.672 156.188 279.349 158.219C276.131 158.929 274.719 162.871 276.946 165.264L277.104 165.43L277.448 165.939L303.531 194.207C305.079 195.89 307.695 195.912 309.368 194.264L338.417 165.67C340.285 165.4 342.212 166.392 342.782 168.413C343.841 172.184 345.75 175.729 348.544 178.731C361.726 192.92 387.376 187.604 392.778 162.6C393.051 161.324 393.099 159.982 392.91 158.717C391.139 146.298 384.154 138.689 375.825 135.778C373.952 135.122 373.016 133.26 373.236 131.432L402.109 103.016C403.74 101.414 403.859 98.8308 402.444 97.1369Z" fill="url(#paint0_linear)"/>
<path d="M270.155 359.157H270.373L270.97 359.246L308.782 359.416C311.035 359.428 312.855 357.487 312.868 355.104L313.03 313.662C314.135 312.096 316.152 311.337 317.968 312.321C321.33 314.138 325.131 315.177 329.16 315.177C348.202 315.199 362.263 292.418 348.536 271.061C347.842 269.989 346.935 269.015 345.922 268.273C336.018 260.991 325.882 260.923 318.07 265.11C316.308 266.049 314.369 265.439 313.239 264.016L313.4 222.836C313.415 220.52 311.692 218.626 309.531 218.524L308.219 218.265L272.245 218.242C269.648 217.767 267.994 214.754 269.281 212.167C271.06 208.534 272.088 204.403 272.108 200.022C272.17 185.199 260.737 173.19 246.729 173.494C232.703 173.11 221.224 185.063 221.208 199.887C221.217 204.278 222.205 208.41 224.001 212.055C225.262 214.64 223.59 217.653 220.988 218.118L185.001 217.95L183.702 218.197C182.156 218.265 180.859 219.268 180.22 220.682C180.439 221.323 180.577 222.025 180.577 222.747L180.508 265.269L178.252 264.808C177.229 265.269 176.059 265.348 174.942 264.739L174.245 264.422C173.031 264.434 171.783 264.525 170.495 264.716L170.166 264.762L169.837 264.705C168.415 264.434 167.147 264.196 165.926 264.196C154.386 264.219 144.833 273.418 143.388 285.372C143.26 286.4 143.172 287.44 143.172 288.512C143.172 292.801 144.285 297.384 146.685 302.025C147.201 303.029 147.717 304.044 148.365 305.061C148.922 305.918 149.654 306.697 150.464 307.283C155.763 311.156 160.966 312.715 165.808 312.726C167.103 312.715 168.373 312.603 169.618 312.399L169.946 312.331L170.275 312.387C171.326 312.567 172.146 312.736 172.907 312.829C173.544 312.556 174.188 312.285 174.808 311.946C176.119 311.247 177.533 311.472 178.624 312.23L180.426 311.856L180.36 355.025C180.36 355.575 180.266 356.119 180.144 356.639C180.804 358.072 182.155 359.087 183.764 359.087L221.584 359.112L222.163 359.03H222.391C225.613 359.043 227.402 355.273 225.666 352.371C220.677 343.996 220.033 332.436 227.049 321.159C228.573 319.248 230.339 317.59 232.308 316.202C237.075 313.254 241.87 311.924 246.394 311.868C250.911 311.945 255.692 313.313 260.446 316.271C262.401 317.671 264.17 319.339 265.687 321.26C272.649 332.57 271.931 344.128 266.897 352.483C265.167 355.374 266.935 359.157 270.155 359.157Z" fill="#616E7D"/>
<path d="M136.315 212.843L136.23 213.07L136.193 213.15L135.976 214.04C135.967 214.979 136.705 215.927 137.615 216.128L173.327 216.062C173.84 216.062 174.27 216.209 174.717 216.321V216.31C175.971 216.367 177.12 216.818 178.061 217.552L178.289 216.389L178.451 174.949C179.559 173.381 181.577 172.635 183.388 173.606C186.745 175.423 190.542 176.461 194.578 176.461C213.629 176.483 227.683 153.702 213.957 132.345C213.257 131.272 212.359 130.302 211.345 129.557C201.444 122.275 191.299 122.207 183.484 126.396C181.733 127.332 179.784 126.723 178.657 125.301L178.827 84.1212C178.829 81.808 177.11 79.9096 174.948 79.8087L173.64 79.5503L137.665 79.5257C135.062 79.0529 133.407 76.0364 134.689 73.4543C136.485 69.8172 137.505 65.6862 137.53 61.3051C137.596 46.4749 126.161 34.4742 112.141 34.7776C98.1268 34.3958 86.6424 46.3489 86.6242 61.1706C86.6305 65.5615 87.628 69.6946 89.4172 73.3408C90.6774 75.9229 89.0137 78.9401 86.414 79.3898L50.4238 79.2315L49.1222 79.4788C46.9576 79.5713 45.2308 81.4557 45.2308 83.7835L45.1965 124.963C44.0518 126.373 42.1093 126.984 40.3636 126.024C32.5709 121.801 22.4231 121.812 12.4876 129.048C11.4704 129.784 10.5639 130.754 9.8564 131.826C-3.97968 153.105 9.98179 175.953 29.027 176.031C33.0592 176.054 36.8666 175.037 40.2256 173.232C42.0497 172.263 44.0701 173.029 45.1531 174.611L45.1215 216.051C45.1215 216.568 45.2378 217.055 45.3976 217.518C46.3328 216.806 47.4711 216.367 48.7201 216.31V216.321C49.1608 216.209 49.5986 216.062 50.1121 216.062L85.827 216.128C86.7342 215.927 87.476 214.979 87.4571 214.053L87.2483 213.15L87.207 213.049L87.1601 212.946L87.1131 212.822C85.2953 209.017 84.241 204.726 84.213 200.179H84.2074V200.056V200.031V199.963C84.2074 197.086 84.7327 194.41 85.4277 191.903C88.7096 180.152 98.8757 171.439 111.126 171.439L111.773 171.451L112.318 171.439C124.556 171.439 134.732 180.152 138.014 191.903C138.708 194.41 139.225 197.085 139.225 199.974V200.03C139.224 204.649 138.153 208.995 136.315 212.843Z" fill="#616E7D"/>
<path d="M148.717 266.567C153.419 262.233 159.551 259.579 166.286 259.558L166.296 261.634V259.558C167.929 259.558 169.365 259.851 170.691 260.088C172.048 259.906 173.403 259.784 174.757 259.774C175.424 259.774 176.093 259.805 176.766 259.873L176.816 222.372C176.816 221.187 175.999 220.331 175.042 220.218L174.908 220.184L174.599 220.171L174.301 220.06L173.697 219.936L137.541 220.001L137.366 219.968C134.538 219.439 132.589 217.033 132.326 214.223L132.226 213.66C132.226 212.778 132.429 211.875 132.833 211.007H132.814L132.895 210.792L132.943 210.723C134.548 207.38 135.474 203.645 135.474 199.647V199.591C135.474 197.244 135.052 194.974 134.423 192.705C131.594 182.637 122.964 175.311 112.684 175.311L112.159 175.322H112.102H112.043L111.495 175.311C106.659 175.311 102.22 176.97 98.5472 179.737C94.4085 182.852 91.2519 187.367 89.7633 192.705C89.3976 193.992 89.1412 195.29 88.9563 196.6C88.812 197.582 88.6964 198.565 88.6964 199.569V199.58V199.648C88.6964 203.645 89.6288 207.38 91.2428 210.711L91.2925 210.803L91.3268 210.904L91.3773 211.029L91.3619 211.04C91.7402 211.886 91.9503 212.789 91.9503 213.67L91.8564 214.179C91.612 217.012 89.654 219.44 86.8169 219.969L86.6445 220.003L50.4876 219.937L50.1941 219.994L49.8781 220.062L49.5839 220.172L49.2687 220.185C48.2515 220.23 47.3598 221.134 47.3507 222.364L47.42 264.311L46.9472 264.91C45.8151 266.308 44.1472 267.201 42.3055 267.201C41.3857 267.201 40.4323 266.976 39.5713 266.501C36.4932 264.853 33.0424 263.917 29.357 263.917C24.4932 263.917 19.1937 265.54 13.8536 269.459C13.0459 270.048 12.2985 270.824 11.7542 271.683C8.09671 277.338 6.56116 282.995 6.56116 288.221C6.56116 301.676 16.7846 312.514 29.2946 312.536H29.3352C33.0109 312.536 36.4771 311.61 39.5552 309.952C40.3965 309.5 41.3135 309.275 42.2053 309.275C44.2228 309.275 46.0056 310.358 47.1167 311.948L47.5076 312.514L47.5706 354.63C47.5706 355.882 48.5121 356.82 49.572 356.82L87.24 356.755L87.8375 356.661H87.9909H88.2102C88.8141 356.651 89.2021 356.436 89.5461 356.075C89.8746 355.691 90.0841 355.139 90.0841 354.552L89.7275 353.255C87.0873 348.85 85.5545 343.613 85.5545 338.013C85.5545 332.133 87.2505 325.855 91.0256 319.758L91.0978 319.647L91.1692 319.558C92.8183 317.489 94.7391 315.685 96.8624 314.184L96.9128 314.149L96.957 314.115C102.009 310.977 107.171 309.52 112.06 309.43H112.076H112.123C117.015 309.52 122.171 310.977 127.217 314.115L127.267 314.137L127.32 314.183C129.445 315.685 131.362 317.489 133.007 319.557L133.086 319.659L133.155 319.758C136.928 325.854 138.629 332.133 138.62 338.025C138.62 343.613 137.1 348.85 134.45 353.265L134.087 354.551C134.083 355.138 134.303 355.69 134.635 356.074C134.97 356.436 135.367 356.65 135.971 356.66H136.333L136.478 356.686L136.928 356.754L174.609 356.819C175.666 356.819 176.61 355.882 176.613 354.63L176.68 316.598C175.831 316.711 174.953 316.792 174.036 316.792H174.024C172.465 316.78 171.239 316.429 170.211 316.249C168.89 316.453 167.558 316.598 166.18 316.598C160.672 316.598 154.813 314.792 149.091 310.785L148.443 310.378C147.232 309.476 146.157 308.347 145.309 307.036C143.153 303.706 141.664 300.31 140.707 296.945C140.413 295.896 140.191 294.846 140 293.808C139.647 291.889 139.424 289.991 139.424 288.129C139.42 279.528 143.014 271.815 148.717 266.567Z" fill="url(#paint1_linear)"/>
</g>
<defs>
<filter id="filter0_d" x="0" y="0" width="408" height="365.968" filterUnits="userSpaceOnUse" color-interpolation-filters="sRGB">
<feFlood flood-opacity="0" result="BackgroundImageFix"/>
<feColorMatrix in="SourceAlpha" type="matrix" values="0 0 0 0 0 0 0 0 0 0 0 0 0 0 0 0 0 0 127 0"/>
<feOffset dy="2"/>
<feGaussianBlur stdDeviation="2"/>
<feColorMatrix type="matrix" values="0 0 0 0 0 0 0 0 0 0 0 0 0 0 0 0 0 0 0.25 0"/>
<feBlend mode="normal" in2="BackgroundImageFix" result="effect1_dropShadow"/>
<feBlend mode="normal" in="SourceGraphic" in2="effect1_dropShadow" result="shape"/>
</filter>
<linearGradient id="paint0_linear" x1="309.723" y1="2.09344" x2="309.723" y2="195.485" gradientUnits="userSpaceOnUse">
<stop stop-color="#79B9A2"/>
<stop offset="1" stop-color="#5D917E"/>
</linearGradient>
<linearGradient id="paint1_linear" x1="91.6887" y1="175.311" x2="91.6887" y2="356.82" gradientUnits="userSpaceOnUse">
<stop offset="0.74588" stop-color="white"/>
<stop offset="1" stop-color="#F7F7F7"/>
</linearGradient>
<clipPath id="clip0">
<rect width="400" height="357.968" fill="white" transform="translate(4 2)"/>
</clipPath>
</defs>
</svg>
